<?xml version="1.0" standalone="no"?>
<!DOCTYPE svg PUBLIC "-//W3C//DTD SVG 20010904//EN"
 "http://www.w3.org/TR/2001/REC-SVG-20010904/DTD/svg10.dtd">
<svg version="1.0" xmlns="http://www.w3.org/2000/svg"
 width="512.000000pt" height="512.000000pt" viewBox="0 0 512.000000 512.000000"
 preserveAspectRatio="xMidYMid meet">

<g transform="translate(0.000000,512.000000) scale(0.100000,-0.100000)"
fill="#1E4063" stroke="none">
<path d="M38 4151 l-33 -29 -3 -1304 c-1 -717 0 -1314 3 -1326 3 -13 18 -35
32 -48 25 -23 30 -24 190 -24 214 0 220 3 248 128 61 272 290 452 575 452 283
0 515 -183 575 -455 12 -51 25 -82 42 -100 l26 -25 684 0 685 0 29 29 29 29 0
1319 c0 1234 -2 1319 -18 1339 -9 12 -27 27 -39 33 -16 8 -433 11 -1507 11
l-1486 0 -32 -29z"/>
<path d="M3403 3613 c-12 -2 -34 -18 -48 -34 l-25 -31 0 -1033 0 -1033 31 -31
c30 -30 33 -31 124 -31 123 0 138 11 165 128 45 191 144 317 308 393 223 104
494 68 664 -89 99 -92 161 -205 183 -336 4 -23 18 -51 35 -68 27 -27 32 -28
122 -28 99 0 123 10 147 57 15 29 16 1056 1 1083 -26 48 -855 1027 -883 1043
-29 15 -67 17 -417 16 -212 -1 -395 -4 -407 -6z m735 -219 c15 -9 104 -108
197 -221 285 -343 275 -329 275 -374 0 -31 -7 -47 -29 -70 l-29 -29 -476 0
-476 0 -32 29 -33 29 0 297 0 297 33 29 32 29 256 0 c218 0 260 -2 282 -16z"/>
<path d="M966 1799 c-73 -12 -169 -65 -225 -124 -84 -89 -122 -182 -122 -300
0 -218 147 -390 366 -428 167 -28 355 62 439 210 45 79 59 138 54 238 -3 82
-8 101 -41 167 -60 122 -165 206 -293 233 -76 16 -104 17 -178 4z m149 -319
c43 -26 69 -81 60 -126 -3 -20 -21 -49 -41 -69 -30 -30 -41 -35 -84 -35 -41 0
-54 5 -83 33 -111 104 19 277 148 197z"/>
<path d="M4141 1799 c-77 -15 -169 -65 -224 -122 -196 -201 -155 -531 84 -674
263 -157 596 -1 650 305 32 178 -72 377 -237 454 -92 43 -182 55 -273 37z
m140 -314 c40 -21 69 -71 69 -119 0 -31 -7 -45 -39 -77 -33 -33 -45 -39 -81
-39 -78 0 -130 52 -130 130 0 36 6 48 39 81 44 44 88 51 142 24z"/>
</g>
</svg>
