<?xml version="1.0" standalone="no"?>
<!DOCTYPE svg PUBLIC "-//W3C//DTD SVG 20010904//EN"
 "http://www.w3.org/TR/2001/REC-SVG-20010904/DTD/svg10.dtd">
<svg version="1.0" xmlns="http://www.w3.org/2000/svg"
 width="512.000000pt" height="512.000000pt" viewBox="0 0 512.000000 512.000000"
 preserveAspectRatio="xMidYMid meet">

<g transform="translate(0.000000,512.000000) scale(0.100000,-0.100000)"
fill="#ffffff" stroke="none">
<path d="M1712 5022 c-76 -27 -119 -67 -157 -147 -30 -60 -33 -139 -9 -209 30
-89 69 -116 452 -321 193 -103 352 -191 352 -195 0 -8 23 5 -565 -310 -269
-145 -507 -276 -527 -292 l-37 -29 -223 127 c-123 70 -237 133 -255 141 -41
17 -147 16 -195 -1 -147 -53 -216 -233 -145 -378 16 -32 44 -70 65 -86 20 -16
178 -109 350 -208 l312 -179 0 -127 c0 -84 -4 -128 -11 -128 -6 0 -84 41 -173
90 -90 50 -173 90 -185 90 -55 0 -88 -47 -70 -98 9 -25 43 -48 225 -147 l214
-117 0 -120 c0 -110 -2 -120 -17 -114 -10 4 -169 90 -355 192 -412 225 -408
224 -483 224 -184 0 -313 -174 -261 -352 27 -93 73 -133 291 -251 105 -57 455
-249 778 -426 324 -178 609 -332 634 -343 60 -27 156 -27 216 0 171 76 217
309 86 441 -20 21 -176 113 -384 227 l-350 192 -3 571 c-1 314 1 571 5 571 5
-1 121 -58 258 -128 l250 -127 5 -405 c5 -438 5 -431 61 -464 43 -25 76 -19
166 29 45 25 91 45 102 45 13 0 43 -38 100 -129 95 -151 116 -171 178 -171 38
0 50 5 79 34 l34 34 0 326 c0 179 3 326 6 326 3 0 123 -60 265 -132 l259 -133
0 -1082 c0 -596 -2 -1083 -6 -1083 -7 0 -1604 814 -1662 847 -56 32 -90 86
-102 159 -15 93 -67 128 -125 82 -26 -20 -27 -25 -23 -88 5 -86 51 -183 112
-237 62 -54 1717 -898 1805 -920 124 -32 97 -43 1048 442 470 240 870 447 888
461 19 14 49 48 68 77 67 99 67 96 67 742 0 571 0 582 -20 603 -28 30 -82 30
-110 0 -20 -21 -20 -32 -20 -597 -1 -646 1 -630 -72 -694 -29 -26 -306 -172
-866 -458 -453 -230 -826 -419 -828 -419 -2 0 -4 487 -4 1083 l0 1083 518 264
c284 145 678 346 875 447 197 101 363 183 368 183 5 0 9 -120 9 -294 0 -282 1
-294 21 -320 29 -36 80 -36 109 1 21 27 21 33 18 343 l-3 315 -32 65 c-51 103
-93 136 -348 273 -127 68 -512 275 -856 460 -436 234 -642 340 -680 348 -67
15 -153 7 -211 -19 l-46 -20 -463 250 c-255 137 -494 265 -532 284 -86 44
-161 52 -235 26z m593 -387 c253 -136 463 -250 467 -254 8 -7 -231 -141 -250
-141 -10 0 -752 397 -796 425 -46 30 -62 118 -30 164 27 38 75 63 114 58 21
-3 225 -107 495 -252z m1008 -349 c241 -126 339 -182 336 -192 -1 -5 -401
-212 -888 -461 l-886 -452 -245 126 c-135 69 -248 129 -253 132 -7 7 1611 883
1676 908 71 27 109 18 260 -61z m704 -377 c103 -56 192 -104 196 -108 4 -5
-391 -211 -878 -460 l-885 -452 -200 102 c-110 56 -200 104 -200 108 0 3 109
61 243 128 307 155 1048 532 1322 674 116 60 211 109 212 109 1 0 86 -45 190
-101z m621 -334 c133 -71 238 -132 234 -136 -4 -3 -398 -206 -876 -449 l-870
-443 -254 127 c-226 113 -253 129 -236 140 11 7 206 108 434 224 228 116 618
314 865 441 248 127 452 229 456 228 3 -1 114 -60 247 -132z m-3723 -55 c142
-80 228 -135 226 -142 -3 -7 -7 -70 -10 -140 l-6 -127 -270 155 c-148 85 -283
168 -300 185 -25 25 -30 37 -30 80 0 46 4 54 37 85 66 60 87 55 353 -96z
m1244 -651 c108 -55 199 -104 204 -108 4 -4 6 -133 5 -287 l-3 -279 -49 78
c-63 101 -100 130 -175 135 -49 4 -66 0 -119 -27 -34 -17 -64 -31 -67 -31 -3
0 -5 140 -5 310 0 171 3 310 7 310 3 0 94 -45 202 -101z m-1061 -770 c433
-237 797 -440 810 -452 12 -11 27 -38 33 -58 22 -70 -42 -152 -118 -152 -32 0
-157 65 -718 373 -374 205 -733 402 -798 437 -137 75 -161 102 -154 171 5 45
34 87 72 102 58 24 68 20 873 -421z"/>
<path d="M223 4950 c-84 -17 -151 -67 -191 -144 -22 -42 -27 -64 -27 -126 0
-64 4 -82 29 -127 16 -29 39 -61 51 -73 25 -23 1112 -610 1164 -628 56 -20
140 -15 196 12 105 49 159 135 159 251 0 78 -28 148 -81 196 -36 34 -434 249
-460 249 -11 0 -32 -9 -47 -21 -33 -26 -36 -77 -6 -104 12 -10 103 -62 203
-116 100 -53 194 -109 209 -123 52 -51 46 -131 -14 -181 -47 -40 -94 -34 -202
24 -50 27 -293 158 -541 291 -247 133 -463 254 -478 269 -35 34 -44 85 -23
134 12 29 26 43 61 58 59 26 63 25 298 -101 102 -55 195 -100 207 -100 31 0
70 44 70 78 0 17 -9 37 -22 49 -45 40 -404 223 -458 233 -29 6 -53 10 -54 9 0
-1 -20 -5 -43 -9z"/>
<path d="M3946 4479 c-29 -23 -36 -73 -13 -101 6 -9 115 -73 242 -142 251
-137 278 -146 314 -100 27 34 26 57 -1 88 -25 27 -475 276 -500 276 -8 0 -27
-9 -42 -21z"/>
<path d="M3617 1187 c-201 -102 -244 -128 -251 -150 -14 -38 3 -79 39 -96 28
-14 36 -10 274 110 209 105 247 128 255 152 14 40 -3 78 -42 94 -32 13 -37 11
-275 -110z"/>
<path d="M3624 884 c-126 -64 -237 -124 -246 -132 -25 -21 -23 -77 2 -102 11
-11 33 -20 49 -20 31 0 450 209 489 243 13 12 22 32 22 49 0 33 -39 78 -68 78
-10 0 -122 -52 -248 -116z"/>
</g>
</svg>
