<?xml version="1.0" standalone="no"?>
<!DOCTYPE svg PUBLIC "-//W3C//DTD SVG 20010904//EN"
 "http://www.w3.org/TR/2001/REC-SVG-20010904/DTD/svg10.dtd">
<svg version="1.0" xmlns="http://www.w3.org/2000/svg"
 width="512.000000pt" height="512.000000pt" viewBox="0 0 512.000000 512.000000"
 preserveAspectRatio="xMidYMid meet">

<g transform="translate(0.000000,512.000000) scale(0.100000,-0.100000)"
fill="#ffffff" stroke="none">
<path d="M665 4455 l-25 -24 0 -346 c0 -190 -2 -345 -5 -345 -3 0 -114 70
-246 156 -132 85 -247 158 -254 160 -16 7 -101 -114 -89 -126 5 -5 295 -194
644 -420 349 -226 634 -416 632 -422 -1 -6 -73 -122 -158 -259 -143 -227 -158
-247 -177 -240 -12 5 -213 88 -446 185 -233 98 -427 174 -432 169 -8 -9 -60
-135 -56 -138 1 -1 132 -56 292 -122 l290 -121 5 -382 5 -382 24 -19 c21 -17
42 -19 240 -19 l216 0 21 -33 c48 -74 135 -166 177 -186 74 -36 159 -22 220
36 l27 27 28 -27 c33 -32 91 -57 132 -57 63 0 136 45 166 102 l14 27 47 -24
c79 -43 178 -25 234 42 19 22 30 28 44 22 54 -21 148 4 189 50 l19 21 594 0
594 0 24 25 25 24 0 1311 0 1311 -25 24 -24 25 -1471 0 -1471 0 -24 -25z
m1095 -510 l0 -376 25 -24 24 -25 351 0 351 0 24 25 25 24 0 376 0 375 480 0
480 0 0 -1200 0 -1200 -525 0 c-493 0 -525 1 -525 18 0 9 -13 45 -30 80 l-29
62 474 0 475 0 0 80 0 80 -515 0 -515 0 -99 199 -100 198 97 6 c114 8 249 38
304 69 45 25 95 95 104 145 17 89 -27 185 -104 230 -46 27 -53 28 -247 35
-229 8 -422 22 -645 48 l-156 17 -339 220 -340 219 -3 347 -2 347 480 0 480 0
0 -375z m640 55 l0 -320 -240 0 -240 0 0 320 0 320 240 0 240 0 0 -320z m-525
-1015 c94 -8 260 -18 369 -21 174 -6 202 -10 218 -26 10 -10 18 -27 18 -38 0
-60 -108 -90 -353 -99 -162 -6 -170 -7 -188 -30 -10 -13 -19 -34 -19 -47 0
-13 90 -204 200 -424 110 -221 200 -409 200 -419 0 -23 -23 -43 -41 -36 -8 4
-95 105 -194 225 -99 121 -182 219 -185 219 -3 0 -31 -23 -63 -52 l-57 -52 96
-115 c140 -166 206 -257 202 -276 -2 -9 -11 -22 -20 -28 -15 -9 -45 16 -206
177 -103 103 -192 187 -197 186 -6 -1 -32 -26 -59 -55 l-50 -55 77 -77 c73
-74 137 -178 137 -223 0 -21 -26 -43 -40 -34 -6 4 -76 87 -155 186 l-143 179
-59 -47 c-32 -26 -60 -48 -62 -49 -1 -2 27 -42 65 -90 57 -72 68 -93 68 -126
1 -56 -23 -71 -60 -38 -50 46 -126 155 -164 235 -59 122 -81 217 -87 380 l-5
140 162 260 c90 143 171 272 181 286 l18 25 113 -13 c62 -7 190 -19 283 -28z
m-982 -530 l67 -27 0 -92 c0 -109 23 -251 55 -347 l24 -69 -120 0 -119 0 0
286 c0 225 3 285 13 281 6 -3 42 -17 80 -32z"/>
<path d="M2720 2480 l0 -80 320 0 320 0 0 80 0 80 -320 0 -320 0 0 -80z"/>
<path d="M3263 1565 c-161 -24 -244 -40 -273 -55 -49 -25 -96 -87 -105 -140
-6 -34 -10 -39 -28 -35 -12 2 -139 28 -282 56 -221 44 -271 51 -335 46 -100
-7 -201 -40 -247 -80 -109 -96 -91 -262 37 -327 19 -9 283 -100 585 -201 l550
-183 120 0 c115 0 131 3 377 66 l257 65 16 -23 c8 -13 25 -26 38 -29 45 -11
1052 -84 1058 -77 4 4 9 39 11 78 l3 72 -50 5 c-27 3 -245 21 -482 39 l-433
33 0 242 0 243 480 0 480 0 0 80 0 80 -530 0 c-361 0 -537 -3 -553 -11 -20 -9
-33 -6 -73 14 -163 83 -290 91 -621 42z m477 -155 c36 -12 91 -37 123 -57 l57
-34 0 -189 0 -188 -292 -72 c-271 -67 -297 -72 -367 -67 -63 5 -168 37 -616
186 -296 100 -545 187 -553 195 -20 19 -7 52 26 64 51 20 107 32 151 32 48 0
681 -123 749 -146 29 -10 89 -14 192 -14 l150 0 0 80 0 80 -144 0 c-118 0
-147 3 -160 16 -21 20 -20 48 1 65 9 8 108 28 227 46 247 38 353 38 456 3z"/>
</g>
</svg>
