<?xml version="1.0" standalone="no"?>
<!DOCTYPE svg PUBLIC "-//W3C//DTD SVG 20010904//EN"
 "http://www.w3.org/TR/2001/REC-SVG-20010904/DTD/svg10.dtd">
<svg version="1.0" xmlns="http://www.w3.org/2000/svg"
 width="512.000000pt" height="512.000000pt" viewBox="0 0 512.000000 512.000000"
 preserveAspectRatio="xMidYMid meet">

<g transform="translate(0.000000,512.000000) scale(0.100000,-0.100000)"
fill="#ffffff" stroke="none">
<path d="M4131 4900 c-342 -48 -641 -308 -727 -632 l-18 -68 -1006 -2 -1005
-3 -47 -27 c-60 -36 -101 -86 -122 -150 -14 -43 -16 -108 -16 -445 l0 -394 25
-24 c31 -32 69 -32 100 0 l25 24 0 386 c0 424 2 440 59 469 26 14 98 16 556
16 l525 0 0 -499 c0 -476 1 -500 19 -522 l19 -24 347 0 347 0 19 24 c18 22 19
46 19 522 l0 499 59 0 58 0 7 -79 c19 -227 113 -423 279 -577 176 -164 384
-241 623 -232 l114 4 0 -619 0 -619 -191 -259 -191 -259 -36 5 c-21 3 -223 28
-451 55 -228 28 -416 51 -417 53 -2 1 70 56 159 122 89 66 181 137 204 158 48
44 83 124 83 191 0 155 -140 281 -293 263 -34 -5 -168 -61 -446 -188 -360
-165 -404 -183 -484 -195 -100 -15 -267 -68 -354 -112 -49 -26 -189 -115 -259
-167 -16 -12 -61 -17 -197 -22 l-177 -6 0 131 0 132 140 0 c149 0 177 7 228
54 61 55 82 165 47 240 -26 54 -88 103 -147 115 -27 6 -98 11 -158 11 l-110 0
0 130 0 130 368 0 c411 0 416 1 479 73 59 67 67 145 26 228 -30 57 -71 92
-132 109 -46 13 -1121 13 -1175 0 -47 -10 -79 -33 -120 -84 -27 -32 -31 -47
-34 -109 -4 -68 -2 -75 30 -121 20 -31 50 -59 77 -73 40 -21 57 -23 188 -23
l143 0 0 -130 0 -129 -518 -3 -519 -3 -49 -30 c-59 -36 -104 -114 -104 -180 0
-59 42 -136 92 -171 l41 -29 529 -3 528 -3 0 -129 0 -129 -32 -5 c-18 -3 -163
-7 -322 -10 -236 -5 -293 -8 -312 -21 -44 -28 -43 -92 0 -120 21 -14 91 -14
622 0 l599 15 40 30 c69 53 198 136 252 164 114 57 281 106 363 106 19 0 190
73 446 190 228 104 426 190 440 190 84 0 139 -93 100 -169 -9 -16 -165 -142
-385 -310 -270 -205 -373 -289 -377 -307 -13 -53 37 -104 88 -90 13 3 65 39
117 81 51 41 96 75 100 75 3 0 247 -29 541 -65 294 -36 552 -65 572 -65 44 0
28 -20 327 387 196 265 227 303 262 317 97 39 201 -53 169 -150 -21 -63 -400
-771 -434 -811 -47 -54 -116 -85 -251 -114 -129 -27 -161 -49 -151 -102 7 -36
38 -67 68 -67 50 0 276 63 330 92 109 58 142 106 370 540 121 230 211 413 218
443 27 119 -37 243 -154 302 -61 31 -159 35 -218 10 l-38 -16 0 558 0 558 59
27 c181 81 340 234 428 411 227 455 15 1009 -458 1198 -133 53 -305 75 -438
57z m293 -166 c196 -50 375 -194 466 -374 201 -398 2 -874 -425 -1017 -72 -24
-95 -27 -220 -27 -125 0 -148 3 -220 27 -522 175 -674 823 -283 1208 176 174
441 245 682 183z m-1324 -1134 l0 -450 -235 0 -235 0 0 450 0 450 235 0 235 0
0 -450z m-1046 -830 c33 -12 43 -52 22 -85 l-16 -25 -565 0 c-620 0 -595 -2
-595 60 0 61 -11 60 587 60 324 0 552 -4 567 -10z m-448 -692 c20 -19 22 -62
4 -83 -11 -13 -102 -15 -718 -15 -642 0 -707 1 -724 17 -26 23 -22 58 9 82 26
21 29 21 719 19 631 -3 695 -5 710 -20z"/>
<path d="M4650 4323 c-8 -3 -130 -119 -270 -259 l-255 -254 -140 140 c-153
153 -172 164 -220 115 -50 -49 -41 -63 153 -257 150 -150 182 -178 207 -178
25 0 72 42 327 298 316 315 321 322 281 370 -19 23 -58 34 -83 25z"/>
<path d="M142 3599 c-46 -14 -118 -88 -131 -135 -23 -83 -3 -161 55 -216 60
-56 73 -58 449 -58 290 0 352 3 383 16 142 59 176 235 66 341 -24 23 -60 47
-81 52 -48 14 -695 13 -741 0z m718 -159 c24 -24 25 -48 4 -78 -15 -22 -15
-22 -349 -22 -334 0 -334 0 -349 22 -21 30 -20 54 4 78 19 19 33 20 345 20
312 0 326 -1 345 -20z"/>
<path d="M3270 704 l-425 -94 -615 0 -615 0 -540 -126 c-478 -111 -543 -128
-562 -150 -37 -40 -29 -85 18 -110 27 -14 59 -8 564 111 l536 125 617 0 617 0
430 95 c390 86 432 97 453 120 25 29 28 61 8 87 -30 41 -45 39 -486 -58z"/>
</g>
</svg>
